# xmcd
#
# Track frame offsets:
# 150
# 13200
# 26582
# 39652
# 56692
# 69715
# 83215
# 100315
# 112077
# 123527
# 134935
# 148397
# 160507
# 177930
# 192365
# 201830
# 215165
# 227952
#
# Disc length: 3234 seconds
#
#
# Revision: 1
# Processed by: cddbd v1.5.1PL0 Copyright (c) Steve Scherf et al.
# Submitted via: FreeRIP 2.70 
#
DISCID=200ca012
DTITLE=Gaviões do Forró - ao Vivo - Nas Garras do Vaneirão
DYEAR=1900
DGENRE=Forró
TTITLE0=Meu Jeitinho
TTITLE1=Mate o Papai
TTITLE2=Cachaça e Mulher Bonita
TTITLE3=A volta do Cabaré P/ Casa
TTITLE4=Destruindo Corações
TTITLE5=Improvisando
TTITLE6=Mulher Valente
TTITLE7=Vaqueiro Apaixonado
TTITLE8=Doidão por Você
TTITLE9=Guerra e Paz
TTITLE10=Vende Quatro Pés
TTITLE11=Galinha do Zé Bento
TTITLE12=Mulher do Short Apertado
TTITLE13=Fungando no Cangote
TTITLE14=O Bicho
TTITLE15=Tu vai Ver
TTITLE16=Separação, Não
TTITLE17=Não Aperta Aparício
EXTD=Forró
EXTT0=
EXTT1=
EXTT2=
EXTT3=
EXTT4=
EXTT5=
EXTT6=
EXTT7=
EXTT8=
EXTT9=
EXTT10=
EXTT11=
EXTT12=
EXTT13=
EXTT14=
EXTT15=
EXTT16=
EXTT17=
PLAYORDER=
